<svg width="166" height="166" viewBox="0 0 166 166" fill="none" xmlns="http://www.w3.org/2000/svg">
<path d="M60.9277 47.6C60.4277 46.3 59.8277 45.9 58.3277 45.9C57.1277 45.9 54.5277 46.2 49.8277 46.2C41.3277 46.2 38.6277 45.9 37.6277 45.9C37.0277 45.9 36.9277 46.2 36.9277 46.5V49.1C36.9277 49.5 37.0277 49.8 37.6277 49.8H43.7277C47.8277 49.8 47.7277 51.2 47.8277 53.5C47.9277 56.4 47.9277 71.5 47.9277 72.9C47.9277 74.7 47.6277 100.3 46.4277 107.4C45.8277 110.8 44.9277 113.4 41.1277 113.4H35.8277C35.3277 113.4 35.2277 113.7 35.2277 114V116.4C35.2277 117.2 35.3277 117.3 36.1277 117.3C37.0277 117.3 40.5277 117 49.0277 117C57.3277 117 60.0277 117.3 61.1277 117.3C61.9277 117.3 62.0277 117 62.0277 116.6V114.1C62.0277 113.7 61.9277 113.4 61.3277 113.4H56.3277C53.1277 113.4 52.2277 111.8 51.7277 106.1C51.4277 102.6 51.5277 81.5 51.5277 80.3C51.5277 79.1 51.7277 53.8 52.1277 52.4C53.5277 53.6 62.6277 76 64.5277 80.6L78.1277 114.1C78.5277 115.1 79.0277 115.9 79.6277 115.9C80.4277 115.9 81.2277 114.4 81.6277 113.5C82.0277 112.6 93.1277 87.1 93.7277 85.9C94.2277 84.9 108.428 53.4 109.428 52.1H109.628C109.928 53 109.928 70.8 109.928 77.4V83.8C109.928 91.2 109.828 108.6 109.728 109.8C109.528 112.8 108.628 113.4 106.928 113.4H100.128C99.4277 113.4 99.3277 113.6 99.3277 114.1V116.4C99.3277 117 99.4277 117.3 100.128 117.3C101.428 117.3 105.328 117 114.528 117C125.528 117 127.328 117.3 128.528 117.3C129.328 117.3 129.428 117 129.428 116.4V114.1C129.428 113.7 129.328 113.4 128.728 113.4H122.828C120.328 113.4 119.428 111.8 119.428 108C119.428 106 119.128 89.8 119.128 84.8V77.8C119.128 71.1 119.428 56.8 119.428 53.9C119.428 51.6 119.728 49.8 122.728 49.8H127.128C127.828 49.8 127.928 49.5 127.928 48.9V46.6C127.928 46.2 127.828 45.9 127.328 45.9C126.228 45.9 122.828 46.2 109.528 46.2C108.528 46.2 107.428 46.3 107.228 47.4C106.928 49.4 96.0277 72.9 95.3277 74.3C94.5277 75.6 84.5277 99.5 83.1277 101L60.9277 47.6Z" fill="#1D3255"/>
</svg>
