<svg width="433" height="38" viewBox="0 0 433 38" fill="none" xmlns="http://www.w3.org/2000/svg">
<path d="M13.2499 1.80001C12.9999 1.15001 12.6999 0.950007 11.9499 0.950007C11.3499 0.950007 10.0499 1.10001 7.6999 1.10001C3.4499 1.10001 2.0999 0.950007 1.5999 0.950007C1.2999 0.950007 1.2499 1.10001 1.2499 1.25001V2.55001C1.2499 2.75001 1.2999 2.90001 1.5999 2.90001H4.6499C6.6999 2.90001 6.6499 3.60001 6.6999 4.75001C6.7499 6.20001 6.7499 13.75 6.7499 14.45C6.7499 15.35 6.5999 28.15 5.9999 31.7C5.6999 33.4 5.2499 34.7 3.3499 34.7H0.699902C0.449902 34.7 0.399902 34.85 0.399902 35V36.2C0.399902 36.6 0.449902 36.65 0.849902 36.65C1.2999 36.65 3.0499 36.5 7.2999 36.5C11.4499 36.5 12.7999 36.65 13.3499 36.65C13.7499 36.65 13.7999 36.5 13.7999 36.3V35.05C13.7999 34.85 13.7499 34.7 13.4499 34.7H10.9499C9.3499 34.7 8.8999 33.9 8.6499 31.05C8.4999 29.3 8.5499 18.75 8.5499 18.15C8.5499 17.55 8.6499 4.90001 8.8499 4.20001C9.5499 4.80001 14.0999 16 15.0499 18.3L21.8499 35.05C22.0499 35.55 22.2999 35.95 22.5999 35.95C22.9999 35.95 23.3999 35.2 23.5999 34.75C23.7999 34.3 29.3499 21.55 29.6499 20.95C29.8999 20.45 36.9999 4.70001 37.4999 4.05001H37.5999C37.7499 4.50001 37.7499 13.4 37.7499 16.7V19.9C37.7499 23.6 37.6999 32.3 37.6499 32.9C37.5499 34.4 37.0999 34.7 36.2499 34.7H32.8499C32.4999 34.7 32.4499 34.8 32.4499 35.05V36.2C32.4499 36.5 32.4999 36.65 32.8499 36.65C33.4999 36.65 35.4499 36.5 40.0499 36.5C45.5499 36.5 46.4499 36.65 47.0499 36.65C47.4499 36.65 47.4999 36.5 47.4999 36.2V35.05C47.4999 34.85 47.4499 34.7 47.1499 34.7H44.1999C42.9499 34.7 42.4999 33.9 42.4999 32C42.4999 31 42.3499 22.9 42.3499 20.4V16.9C42.3499 13.55 42.4999 6.40001 42.4999 4.95001C42.4999 3.80001 42.6499 2.90001 44.1499 2.90001H46.3499C46.6999 2.90001 46.7499 2.75001 46.7499 2.45001V1.30001C46.7499 1.10001 46.6999 0.950007 46.4499 0.950007C45.8999 0.950007 44.1999 1.10001 37.5499 1.10001C37.0499 1.10001 36.4999 1.15001 36.3999 1.70001C36.2499 2.70001 30.7999 14.45 30.4499 15.15C30.0499 15.8 25.0499 27.75 24.3499 28.5L13.2499 1.80001ZM58.5922 9.46001L65.7122 9.62001C66.7922 9.66001 67.9122 10.14 68.7522 10.7C69.7122 11.3 72.6722 15.1 72.7522 15.26C72.7922 15.34 72.9522 15.46 73.0722 15.38L73.6722 15.06C73.8322 14.98 73.8322 14.86 73.7922 14.7L71.7522 8.26001C71.7122 8.14001 71.6322 8.06001 71.4322 8.06001C71.2322 8.06001 70.4722 8.14001 69.8322 8.14001C65.8722 8.14001 61.9122 8.18001 57.9522 8.18001H56.1922C53.5522 8.18001 52.1522 8.06001 51.2722 8.06001C51.0722 8.06001 50.9922 8.14001 50.9922 8.26001V9.34001C50.9922 9.58001 51.1122 9.62001 51.3122 9.62001H52.7522C54.2322 9.62001 54.6322 9.90001 54.7922 11.18C54.8322 11.58 54.9122 16.58 54.9122 19.9V33.3C54.9122 34.78 54.7522 35.06 52.9122 35.06H51.3122C51.0322 35.06 50.9122 35.1 50.9122 35.26V36.34C50.9122 36.54 51.0322 36.62 51.2722 36.62C51.6322 36.62 52.1522 36.58 52.9922 36.54C53.7922 36.54 54.9122 36.5 56.3922 36.5C62.6322 36.5 66.5122 36.54 68.9122 36.54C71.3122 36.58 72.1922 36.62 72.3922 36.62C72.8722 36.62 73.1522 36.38 73.2722 36.02L75.3922 30.14C75.5122 29.82 75.5122 29.7 75.3122 29.58L74.6722 29.22C74.4322 29.1 74.3122 29.26 74.1922 29.46C73.6322 30.38 71.3922 33.26 70.9122 33.66C69.8722 34.54 68.1122 34.98 67.4322 35.06C66.5922 35.14 64.5922 35.18 63.9122 35.18C62.9122 35.18 61.7522 35.06 60.9522 34.9C59.7122 34.66 58.7122 33.86 58.6722 31.78C58.6722 30.98 58.5922 27.1 58.5922 24.94V22.46C59.2322 22.46 61.9922 22.46 63.8722 22.66C64.9122 22.78 65.3522 23.38 65.5922 24.22C65.7122 24.66 65.9522 25.58 66.0322 26.1C66.0722 26.38 66.1522 26.5 66.3522 26.46L67.2322 26.34C67.3922 26.3 67.4722 26.22 67.4722 26.02C67.3922 25.18 67.2322 23.26 67.2322 21.86C67.2322 21.26 67.2322 17.98 67.3522 17.3C67.3922 17.14 67.3122 16.98 67.1122 16.98L66.1122 16.94C65.9522 16.94 65.8322 17.02 65.8322 17.22C65.7922 17.98 65.6322 18.78 65.5122 19.18C65.1522 20.42 64.8322 20.74 63.6722 20.94C63.1922 21.02 58.9122 21.18 58.5922 21.18V9.46001ZM88.374 19.9C88.374 20.66 88.374 32.94 88.254 34.1C88.214 34.58 87.734 35.06 86.934 35.06H84.214C83.974 35.06 83.934 35.18 83.934 35.46V36.22C83.934 36.46 83.974 36.62 84.294 36.62C84.854 36.62 86.534 36.5 90.374 36.5C94.294 36.5 95.574 36.62 95.974 36.62C96.334 36.62 96.374 36.5 96.374 36.3V35.46C96.374 35.18 96.334 35.06 95.974 35.06H93.454C92.494 35.06 92.174 34.46 92.094 33.46C92.054 32.78 92.054 21.58 92.054 21.02V9.62001H93.174C95.134 9.62001 98.894 9.70001 100.094 10.3C101.414 10.94 102.614 14.02 102.934 14.78C103.054 15.06 103.094 15.1 103.254 15.06L103.894 14.9C104.094 14.86 104.174 14.78 104.134 14.58C103.814 12.82 103.054 7.86001 102.974 7.38001C102.894 6.86001 102.814 6.74001 102.614 6.74001C102.454 6.74001 102.334 6.78001 102.134 6.90001L101.374 7.38001C100.694 7.78001 100.174 7.90001 99.294 7.94001C97.334 8.02001 95.614 8.18001 91.254 8.18001H89.334C85.574 8.18001 83.894 8.02001 81.774 7.94001C80.614 7.90001 80.214 7.78001 79.494 7.26001L78.974 6.90001C78.814 6.78001 78.694 6.74001 78.494 6.74001C78.334 6.74001 78.174 6.86001 78.094 7.38001C78.014 7.82001 76.614 12.98 76.214 14.42C76.134 14.66 76.254 14.7 76.374 14.74L77.094 14.94C77.294 14.98 77.414 14.94 77.494 14.74C78.054 13.46 79.254 10.66 81.054 10.1C82.614 9.62001 86.094 9.62001 87.374 9.62001H88.374V19.9ZM118.766 25.38C119.326 26.98 120.966 32.1 121.286 33.54C121.566 34.66 121.206 35.06 120.086 35.06H119.086C118.846 35.06 118.726 35.1 118.726 35.34V36.26C118.726 36.5 118.846 36.62 119.046 36.62C119.966 36.62 121.366 36.5 124.686 36.5C127.926 36.5 128.766 36.62 129.486 36.62C129.766 36.62 129.886 36.54 129.886 36.34V35.34C129.886 35.18 129.806 35.06 129.566 35.06H128.246C127.246 35.06 126.206 34.58 125.526 33.26C124.966 32.1 122.366 24.66 121.446 21.54C120.686 18.98 117.566 10.02 116.806 7.50001C116.686 7.06001 116.606 6.82001 116.366 6.82001C116.166 6.82001 116.046 6.98001 115.846 7.18001C115.406 7.74001 113.646 8.94001 112.526 9.18001C112.246 9.26001 112.166 9.42001 112.166 9.54001C112.166 9.70001 112.326 9.90001 112.446 10.06C112.726 10.5 112.526 11.02 112.406 11.42C112.046 12.5 108.806 21.1 108.526 21.9C107.366 25.18 104.446 32.58 104.166 33.22C103.606 34.5 103.046 35.06 101.846 35.06H100.446C100.286 35.06 100.126 35.14 100.126 35.34V36.3C100.126 36.54 100.206 36.62 100.406 36.62C100.966 36.62 101.846 36.5 104.766 36.5C107.126 36.5 108.766 36.62 109.326 36.62C109.526 36.62 109.646 36.54 109.646 36.26V35.34C109.646 35.14 109.526 35.06 109.246 35.06H107.366C106.486 35.06 106.006 34.74 106.006 34.18C106.006 33.98 106.086 33.58 106.126 33.3C106.326 32.46 108.526 26.38 108.926 25.38H118.766ZM109.446 23.94C109.726 22.94 113.526 12.7 113.726 12.18C113.846 11.86 114.006 11.58 114.166 11.58C114.286 11.58 114.366 11.86 114.486 12.14C114.686 12.74 117.926 22.74 118.286 23.94H109.446ZM135.493 20.82C135.493 23.26 135.373 33.22 135.373 33.98C135.373 34.5 135.133 35.06 133.653 35.06H131.733C131.493 35.06 131.453 35.14 131.453 35.34V36.34C131.453 36.54 131.493 36.62 131.773 36.62C132.053 36.62 132.533 36.58 133.333 36.54C134.173 36.54 135.333 36.5 136.893 36.5C139.053 36.5 142.973 36.5 146.533 36.54C150.093 36.54 153.213 36.58 153.733 36.62C153.973 35.54 155.573 28.94 155.693 28.66C155.733 28.42 155.733 28.38 155.613 28.3L154.973 28.06C154.813 27.98 154.733 28.06 154.653 28.22C154.093 29.78 151.693 34.58 149.333 34.94C148.093 35.1 140.173 35.02 139.293 34.94C139.173 33.3 139.173 24.66 139.173 23.98V20.54C139.173 17.74 139.293 11.7 139.293 11.18C139.293 10.02 139.453 9.62001 140.693 9.62001H143.093C143.413 9.62001 143.493 9.50001 143.493 9.30001V8.38001C143.493 8.18001 143.453 8.06001 143.133 8.06001C142.773 8.06001 141.093 8.18001 137.213 8.18001C133.893 8.18001 132.453 8.06001 132.013 8.06001C131.773 8.06001 131.733 8.14001 131.733 8.34001V9.22001C131.733 9.42001 131.773 9.62001 132.013 9.62001H133.893C135.093 9.62001 135.293 10.02 135.373 11.06C135.413 11.78 135.493 16.02 135.493 18.58V20.82ZM173.533 16.9C173.533 19.95 173.383 32.4 173.383 33.35C173.383 34 173.083 34.7 171.233 34.7H168.833C168.533 34.7 168.483 34.8 168.483 35.05V36.3C168.483 36.55 168.533 36.65 168.883 36.65C169.233 36.65 169.833 36.6 170.833 36.55C171.883 36.55 173.333 36.5 175.283 36.5C177.983 36.5 182.883 36.5 187.333 36.55C191.783 36.55 195.683 36.6 196.333 36.65C196.633 35.3 198.633 27.05 198.783 26.7C198.833 26.4 198.833 26.35 198.683 26.25L197.883 25.95C197.683 25.85 197.583 25.95 197.483 26.15C196.783 28.1 193.783 34.1 190.833 34.55C189.283 34.75 179.383 34.65 178.283 34.55C178.133 32.5 178.133 21.7 178.133 20.85V16.55C178.133 13.05 178.283 5.50001 178.283 4.85001C178.283 3.40001 178.483 2.90001 180.033 2.90001H183.033C183.433 2.90001 183.533 2.75001 183.533 2.50001V1.35001C183.533 1.10001 183.483 0.950007 183.083 0.950007C182.633 0.950007 180.533 1.10001 175.683 1.10001C171.533 1.10001 169.733 0.950007 169.183 0.950007C168.883 0.950007 168.833 1.05001 168.833 1.30001V2.40001C168.833 2.65001 168.883 2.90001 169.183 2.90001H171.533C173.033 2.90001 173.283 3.40001 173.383 4.70001C173.433 5.60001 173.533 10.9 173.533 14.1V16.9ZM218.239 25.38C218.799 26.98 220.439 32.1 220.759 33.54C221.039 34.66 220.679 35.06 219.559 35.06H218.559C218.319 35.06 218.199 35.1 218.199 35.34V36.26C218.199 36.5 218.319 36.62 218.519 36.62C219.439 36.62 220.839 36.5 224.159 36.5C227.399 36.5 228.239 36.62 228.959 36.62C229.239 36.62 229.359 36.54 229.359 36.34V35.34C229.359 35.18 229.279 35.06 229.039 35.06H227.719C226.719 35.06 225.679 34.58 224.999 33.26C224.439 32.1 221.839 24.66 220.919 21.54C220.159 18.98 217.039 10.02 216.279 7.50001C216.159 7.06001 216.079 6.82001 215.839 6.82001C215.639 6.82001 215.519 6.98001 215.319 7.18001C214.879 7.74001 213.119 8.94001 211.999 9.18001C211.719 9.26001 211.639 9.42001 211.639 9.54001C211.639 9.70001 211.799 9.90001 211.919 10.06C212.199 10.5 211.999 11.02 211.879 11.42C211.519 12.5 208.279 21.1 207.999 21.9C206.839 25.18 203.919 32.58 203.639 33.22C203.079 34.5 202.519 35.06 201.319 35.06H199.919C199.759 35.06 199.599 35.14 199.599 35.34V36.3C199.599 36.54 199.679 36.62 199.879 36.62C200.439 36.62 201.319 36.5 204.239 36.5C206.599 36.5 208.239 36.62 208.799 36.62C208.999 36.62 209.119 36.54 209.119 36.26V35.34C209.119 35.14 208.999 35.06 208.719 35.06H206.839C205.959 35.06 205.479 34.74 205.479 34.18C205.479 33.98 205.559 33.58 205.599 33.3C205.799 32.46 207.999 26.38 208.399 25.38H218.239ZM208.919 23.94C209.199 22.94 212.999 12.7 213.199 12.18C213.319 11.86 213.479 11.58 213.639 11.58C213.759 11.58 213.839 11.86 213.959 12.14C214.159 12.74 217.399 22.74 217.759 23.94H208.919ZM232.576 11.06C232.336 10.18 232.696 9.62001 233.736 9.62001H234.416C234.696 9.62001 234.736 9.50001 234.736 9.30001V8.30001C234.736 8.18001 234.696 8.06001 234.416 8.06001C234.016 8.06001 232.376 8.18001 229.496 8.18001C226.776 8.18001 225.536 8.06001 225.216 8.06001C224.936 8.06001 224.896 8.14001 224.896 8.34001V9.30001C224.896 9.46001 224.936 9.62001 225.136 9.62001H226.496C227.256 9.62001 227.816 9.94001 228.216 11.06L237.136 36.66C237.296 37.14 237.536 37.3 237.856 37.3C238.216 37.3 238.456 36.94 238.656 36.54C238.896 36.1 246.176 15.54 246.536 14.46H246.616L254.016 36.42C254.216 36.98 254.416 37.3 254.896 37.3C255.336 37.3 255.536 36.7 255.736 36.26C256.536 34.34 264.896 11.26 265.216 10.7C265.576 10.06 266.136 9.62001 266.816 9.62001H267.776C268.056 9.62001 268.056 9.50001 268.056 9.34001V8.34001C268.056 8.14001 268.016 8.06001 267.776 8.06001C267.456 8.06001 266.296 8.18001 264.056 8.18001C261.576 8.18001 260.176 8.06001 259.776 8.06001C259.496 8.06001 259.456 8.18001 259.456 8.34001V9.26001C259.456 9.50001 259.496 9.62001 259.736 9.62001H260.816C261.896 9.62001 262.216 10.22 262.216 10.86C262.216 13.14 256.416 30.02 255.976 31.3H255.896L249.656 11.22C249.416 10.5 249.776 9.62001 250.776 9.62001H252.376C252.616 9.62001 252.656 9.50001 252.656 9.34001V8.34001C252.656 8.18001 252.616 8.06001 252.376 8.06001C251.976 8.06001 250.456 8.18001 247.096 8.18001C243.976 8.18001 242.576 8.06001 242.216 8.06001C241.976 8.06001 241.936 8.18001 241.936 8.34001V9.30001C241.936 9.54001 241.976 9.62001 242.176 9.62001H243.176C243.896 9.62001 244.416 9.90001 244.776 10.38C245.136 10.86 245.416 11.54 245.376 11.86C245.216 13.54 239.256 30.62 239.096 31.3H239.016L232.576 11.06ZM308.179 29.15C308.179 31.75 307.979 32.85 306.829 33.55C305.079 34.55 302.629 35.25 298.629 35.25C295.379 35.25 292.329 34.1 289.829 31.7C286.729 28.75 285.079 23.6 285.079 17.7C285.079 13.2 286.779 9.05001 289.479 6.20001C292.479 3.00001 295.579 2.15001 299.029 2.15001C303.529 2.15001 306.629 4.40001 308.129 6.25001C309.879 8.40001 310.729 10.75 311.129 12.15C311.179 12.4 311.329 12.55 311.529 12.55L312.429 12.45C312.629 12.45 312.679 12.25 312.679 12L312.529 2.45001C312.529 2.10001 312.429 1.85001 312.079 1.85001C311.779 1.85001 311.579 2.10001 311.379 2.30001L310.629 3.20001C310.329 3.60001 310.029 3.70001 309.479 3.25001C307.779 1.95001 303.929 0.350006 299.629 0.350006C293.629 0.350006 289.129 2.05001 285.579 5.10001C281.879 8.40001 279.929 13.25 279.929 17.8C279.929 23.85 281.479 28.1 284.529 31.55C287.979 35.6 294.079 37.25 298.529 37.25C304.129 37.25 308.129 36.1 312.179 34.05C312.679 33.85 312.979 33.65 312.979 33.25C312.979 32.85 312.779 32.35 312.779 31.65V25.05C312.779 23.5 313.429 23.15 314.329 23.15H316.279C316.579 23.15 316.629 22.95 316.629 22.75V21.55C316.629 21.35 316.579 21.2 316.229 21.2C315.529 21.2 313.929 21.35 310.329 21.35C306.929 21.35 304.679 21.2 303.979 21.2C303.729 21.2 303.679 21.3 303.679 21.6V22.85C303.679 23.05 303.779 23.15 304.029 23.15H306.129C307.629 23.15 308.179 23.65 308.179 25.45V29.15ZM324.007 22.18C324.007 25.98 324.007 29.74 323.927 33.7C323.927 34.78 323.247 35.06 322.367 35.06H320.727C320.527 35.06 320.527 35.18 320.527 35.38V36.3C320.527 36.5 320.527 36.62 320.847 36.62C321.287 36.62 322.207 36.5 325.847 36.5C329.647 36.5 330.647 36.62 331.087 36.62C331.487 36.62 331.527 36.54 331.527 36.26V35.38C331.527 35.18 331.487 35.06 331.207 35.06H328.687C328.087 35.06 327.767 34.34 327.687 33.5C327.647 32.9 327.607 28.42 327.607 26.06V23.82C328.167 23.7 328.567 23.7 328.927 23.7C331.247 23.7 332.207 24.78 333.247 26.02C333.727 26.58 335.647 29.46 335.807 29.74C336.007 30.06 338.167 33.86 338.487 34.34C338.847 34.86 339.727 36.22 340.167 36.62C340.767 36.58 342.247 36.5 343.407 36.5C345.167 36.5 346.207 36.62 346.527 36.62C346.807 36.62 346.847 36.5 346.847 36.26V35.38C346.847 35.22 346.807 35.06 346.527 35.06C345.407 35.06 344.487 34.98 343.647 34.38C342.887 33.82 340.327 30.18 340.127 29.78C339.807 29.26 336.967 25.18 336.487 24.66C336.167 24.22 335.607 23.5 334.647 23.14V23.06C339.767 21.94 342.047 20.06 342.047 15.06C342.047 13.58 341.287 11.78 339.967 10.5C338.447 9.06001 335.807 8.06001 332.487 8.06001C331.767 8.06001 328.047 8.18001 325.807 8.18001C322.447 8.18001 321.207 8.06001 320.847 8.06001C320.647 8.06001 320.607 8.14001 320.607 8.34001V9.34001C320.607 9.50001 320.647 9.62001 320.847 9.62001H322.447C323.447 9.62001 323.927 10.3 323.967 11.62C324.007 12.78 324.007 15.34 324.007 18.3V22.18ZM327.607 10.94C327.607 10.3 327.807 9.86001 328.087 9.66001C328.447 9.42001 328.967 9.34001 329.447 9.34001C332.767 9.34001 334.527 9.94001 336.087 11.18C337.247 12.14 338.087 13.9 338.087 15.74C338.087 17.42 336.687 22.42 329.407 22.42C328.647 22.42 328.207 22.38 327.607 22.26V10.94ZM362.152 37.1C367.672 37.1 371.232 34.7 373.672 31.46C375.752 28.66 376.672 25.62 376.672 22.7C376.672 17.18 374.112 13.26 371.192 10.74C368.032 8.10001 364.752 7.58001 362.232 7.58001C358.872 7.58001 354.912 8.38001 351.392 12.66C348.312 16.38 347.672 20.18 347.672 22.62C347.672 28.46 350.712 32.78 353.552 34.5C356.712 36.46 360.192 37.1 362.152 37.1ZM362.472 35.58C359.072 35.58 351.752 31.86 351.752 21.34C351.752 18.06 353.072 14.02 355.752 11.46C358.752 8.62001 361.472 9.10001 362.072 9.10001C366.512 9.10001 372.752 14.26 372.752 23.02C372.752 26.58 371.272 35.58 362.472 35.58ZM393.794 37.1C397.274 37.1 399.714 36.18 401.314 34.7C403.554 32.78 404.434 30.26 404.674 26.98C404.794 25.42 404.874 18.42 404.874 17.86C404.874 17.3 404.874 11.62 404.954 11.22C405.074 10.74 405.194 9.62001 406.674 9.62001H408.314C408.514 9.62001 408.554 9.46001 408.554 9.22001V8.34001C408.554 8.22001 408.514 8.06001 408.154 8.06001C407.794 8.06001 406.514 8.18001 403.754 8.18001C401.074 8.18001 399.234 8.06001 398.834 8.06001C398.594 8.06001 398.554 8.14001 398.554 8.34001V9.30001C398.554 9.50001 398.594 9.62001 398.834 9.62001H400.594C401.634 9.62001 402.274 10.34 402.394 11.38C402.514 12.38 402.594 14.7 402.594 17.74V26.3C402.594 29.26 402.074 31.66 400.514 33.34C399.114 34.78 396.794 35.54 394.514 35.54C392.194 35.54 389.634 34.82 388.154 32.66C387.234 31.3 386.914 29.42 386.874 27.58C386.834 26.3 386.674 21.22 386.674 19.1V16.46C386.674 14.42 386.714 11.62 386.754 11.26C386.834 10.38 387.514 9.62001 388.674 9.62001H390.674C390.954 9.62001 390.994 9.54001 390.994 9.34001V8.30001C390.994 8.14001 390.954 8.06001 390.634 8.06001C390.194 8.06001 388.274 8.18001 385.154 8.18001C382.034 8.18001 380.074 8.06001 379.674 8.06001C379.354 8.06001 379.314 8.14001 379.314 8.38001V9.26001C379.314 9.54001 379.354 9.62001 379.594 9.62001H381.474C382.714 9.62001 382.994 10.26 382.994 11.66V21.18C382.994 26.42 383.154 29.1 383.634 30.9C384.274 33.42 385.674 35.18 388.394 36.26C389.714 36.82 391.714 37.1 393.794 37.1ZM417.838 23.82C419.118 23.98 420.718 24.02 422.198 24.02C428.558 24.02 432.358 20.9 432.358 15.86C432.358 13.58 431.198 11.34 429.318 10.06C427.038 8.50001 424.918 8.06001 420.398 8.06001C419.078 8.06001 416.718 8.18001 415.998 8.18001C412.198 8.18001 410.758 8.06001 410.318 8.06001C410.118 8.06001 410.078 8.14001 410.078 8.34001V9.30001C410.078 9.54001 410.118 9.62001 410.318 9.62001H412.598C413.678 9.62001 414.078 9.70001 414.158 10.5C414.198 10.9 414.238 15.26 414.238 17.9V22.5C414.238 27.14 414.118 33.38 414.078 33.78C413.958 34.86 413.678 35.06 412.318 35.06H410.598C410.398 35.06 410.358 35.14 410.358 35.34V36.34C410.358 36.5 410.398 36.62 410.678 36.62C411.118 36.62 412.678 36.5 416.198 36.5C419.958 36.5 421.198 36.62 421.758 36.62C422.078 36.62 422.118 36.5 422.118 36.3V35.34C422.118 35.18 422.078 35.06 421.798 35.06H419.238C418.398 35.06 417.998 34.66 417.918 33.78C417.878 33.22 417.838 27.78 417.838 25.9V23.82ZM417.838 9.62001C418.638 9.34001 420.278 9.34001 420.958 9.34001C423.318 9.34001 428.198 10.74 428.198 15.98C428.198 17.38 428.038 18.86 427.158 20.02C426.118 21.42 423.958 22.74 421.518 22.74C419.958 22.74 418.638 22.62 417.838 22.38V9.62001Z" fill="#1D3255"/>
</svg>
